<?xml version="1.0" standalone="no"?>
<!DOCTYPE svg PUBLIC "-//W3C//DTD SVG 20010904//EN"
 "http://www.w3.org/TR/2001/REC-SVG-20010904/DTD/svg10.dtd">
<svg version="1.0" xmlns="http://www.w3.org/2000/svg"
 width="404.000000pt" height="404.000000pt" viewBox="0 0 404.000000 404.000000"
 preserveAspectRatio="xMidYMid meet">
<metadata>
Created by potrace 1.11, written by Peter Selinger 2001-2013
</metadata>
<g transform="translate(0.000000,404.000000) scale(0.100000,-0.100000)"
fill="#000000" stroke="none">
<path d="M310 3670 c0 -345 1 -370 18 -371 9 0 310 -1 668 -1 l652 -1 0 -1646
0 -1646 378 0 379 0 1 1640 c1 902 2 1643 3 1646 1 3 292 6 649 7 356 0 653 1
660 1 9 1 12 82 12 371 l0 370 -1710 0 -1710 0 0 -370z"/>
</g>
</svg>
