<?xml version="1.0" encoding="UTF-8" standalone="no"?>
<svg
   xmlns:dc="http://purl.org/dc/elements/1.1/"
   xmlns:cc="http://creativecommons.org/ns#"
   xmlns:rdf="http://www.w3.org/1999/02/22-rdf-syntax-ns#"
   xmlns:svg="http://www.w3.org/2000/svg"
   xmlns="http://www.w3.org/2000/svg"
   xmlns:sodipodi="http://sodipodi.sourceforge.net/DTD/sodipodi-0.dtd"
   xmlns:inkscape="http://www.inkscape.org/namespaces/inkscape"
   inkscape:version="1.0 (4035a4fb49, 2020-05-01)"
   sodipodi:docname="logo-full.svg"
   id="svg188"
   version="1.1"
   height="300"
   width="300">
  <metadata
     id="metadata194">
    <rdf:RDF>
      <cc:Work
         rdf:about="">
        <dc:format>image/svg+xml</dc:format>
        <dc:type
           rdf:resource="http://purl.org/dc/dcmitype/StillImage" />
      </cc:Work>
    </rdf:RDF>
  </metadata>
  <defs
     id="defs192" />
  <sodipodi:namedview
     inkscape:current-layer="svg188"
     inkscape:window-maximized="0"
     inkscape:window-y="0"
     inkscape:window-x="0"
     inkscape:cy="187.32084"
     inkscape:cx="220.44095"
     inkscape:zoom="0.83085047"
     showgrid="false"
     id="namedview190"
     inkscape:window-height="900"
     inkscape:window-width="1600"
     inkscape:pageshadow="2"
     inkscape:pageopacity="0"
     guidetolerance="10"
     gridtolerance="10"
     objecttolerance="10"
     borderopacity="1"
     bordercolor="#666666"
     pagecolor="#ffffff" />
  <g
     transform="matrix(2.3229329,0,0,2.3229329,14.8306,114.00081)"
     id="g186">
    <path
       id="path184"
       opacity="0.999"
       overflow="visible"
       d="m 0.047,0 h 17.228 c -0.054,1.618 -0.071,3.33 -0.076,5.008 l -6.192,0.064 c -0.003,2.069 0.016,19.293 0.059,20.573 A 714.15,714.15 0 0 1 6.25,26.008 C 6.235,25.534 6.196,6.052 6.196,5.114 4.132,5.129 2.064,5.142 0.003,5.151 -0.004,3.457 -0.001,1.697 0.047,0 Z m 19.719,0 13.008,0.001 c -0.042,1.541 -0.059,3.196 -0.067,4.835 l -8.196,0.09 c -0.007,1.533 -0.006,3.29 -0.004,4.838 l 7.704,-0.136 -10e-4,4.95 -7.704,0.2 c -0.002,1.749 -0.008,3.98 -0.002,5.56 2.841,-0.132 5.628,-0.26 8.472,-0.378 0.006,1.422 0.02,2.782 0.057,3.964 -4.48,0.306 -8.808,0.652 -13.284,1.018 -0.07,-1.985 -0.09,-21.689 0.017,-24.941 z m 17.516,0.001 h 5.383 c 2.163,5.34 4.487,11.647 6.762,16.83 -10e-4,-3.57 -0.009,-13.2 0.036,-16.83 h 4.57 c -0.033,4.513 -0.023,20.76 0,22.972 a 356.97,356.97 0 0 0 -5.389,0.138 L 41.794,7.777 c -0.003,4.442 -0.017,13.101 0.046,15.619 -1.526,0.077 -3.048,0.162 -4.574,0.254 C 37.206,21.514 37.182,4.118 37.282,0.001 Z M 58.74,0.002 h 13.01 c 0.02,1.487 0.029,3.101 0.033,4.71 C 69.041,4.698 66.315,4.688 63.572,4.684 l 0.002,4.683 c 2.581,0.008 5.145,0.023 7.725,0.044 l 0.002,4.846 c -2.58,-0.032 -5.144,-0.054 -7.726,-0.065 10e-4,3.119 0.004,6.765 -0.002,8.743 C 61.964,22.919 60.357,22.914 58.748,22.921 58.737,20.251 58.733,4.997 58.741,0.001 Z M 76.256,0.001 h 4.82 c 0.076,3.32 0.075,16.964 0.067,19.732 2.84,0.102 5.642,0.218 8.479,0.345 -0.005,1.437 -0.017,2.82 -0.055,4.026 A 471.37,471.37 0 0 0 76.279,23.294 C 76.317,21.38 76.33,4.082 76.256,0.001 Z m 16.338,0 h 4.82 c 0.11,3.339 0.091,22.805 0.025,24.725 C 95.83,24.593 94.23,24.463 92.621,24.337 92.686,22.36 92.707,3.622 92.594,0.001 Z m 19.994,12.897 c 1.455,3.05 5.079,10.392 6.449,13.52 -1.67,-0.1 -3.344,-0.215 -5.014,-0.337 -1.183,-2.553 -3.038,-6.231 -4.316,-8.82 l -4.375,8.128 -5.04,-0.424 6.522,-12.149 -6.294,-12.815 h 5.033 L 109.71,8.443 113.728,0 h 5.058 z" />
  </g>
</svg>
